# xmcd
# 
# Track frame offsets:
#     150
#     15585
#     33840
#     49712
#     64667
#     83580
#     104032
#     120217
#     146535
#     164512
#     183129
#     202960
#     224627
#     246760
#     262490
#     293917
#     312432
#     331035
# 
# Disc length: 4596
# 
# Revision: 33
# Processed by: cddbd v1.5.2PL0 Copyright (c) Steve Scherf et al.
# Submitted via: fre:ac v1.0.27
# 
DISCID=0311f212
DTITLE=Barry White - The ultimate collection
DYEAR=2000
DGENRE=Soul
TTITLE0=1974 You're The First, The Last, My Everything
TTITLE1=1974 Can't Get Enough Of Your Love Babe
TTITLE2=1976 Let The Music Play
TTITLE3=1976 Don't Make Me Wait Too Long
TTITLE4=1976 I'll Do For You Anything You Want Me To
TTITLE5=1987 Sho' You Right
TTITLE6=1973 What Am I Gonna Do With You
TTITLE7=1994 Come On
TTITLE8=1973 I'm Gonna Love You Just A Little More Babe
TTITLE9=1973 Never, Never Gonna Give You Up
TTITLE10=1973 Babe We Better Try And Get It Together
TTITLE11=1978 Just The Way You Are
TTITLE12=1991 Dark And Lovely (You Over There) (Radio Edit)
TTITLE13=1976 You See The Trouble With Me
TTITLE14=1977 It's Ecstasy When You Lay Down Next To Me
TTITLE15=1987 The Right Night
TTITLE16=1973 Love's Theme
TTITLE17=2000 Let The Music Play (Funkstar's Club Deluxe Edit)
EXTD=YEAR: 2000
EXTT0=
EXTT1=
EXTT2=
EXTT3=
EXTT4=
EXTT5=
EXTT6=
EXTT7=
EXTT8=
EXTT9=
EXTT10=
EXTT11=
EXTT12=
EXTT13=
EXTT14=
EXTT15=
EXTT16=
EXTT17=
PLAYORDER=
